<?xml version="1.0" encoding="iso-8859-1"?>
<!-- Generator: Adobe Illustrator 21.0.0, SVG Export Plug-In . SVG Version: 6.00 Build 0)  -->
<svg xmlns="http://www.w3.org/2000/svg" xmlns:xlink="http://www.w3.org/1999/xlink" version="1.1" id="Capa_1" x="0px" y="0px" viewBox="0 0 512 512" style="enable-background:new 0 0 512 512;" xml:space="preserve" width="512" height="512">
<g>
	<g>
		<g>
			
				<rect x="98.563" y="358.822" transform="matrix(0.7071 -0.7071 0.7071 0.7071 -223.519 208.0394)" style="fill:#CBE8F8;" width="81.59" height="30"/>
		</g>
		<g>
			
				<rect x="332.731" y="124.064" transform="matrix(0.7142 -0.6999 0.6999 0.7142 9.4153 301.1855)" style="fill:#B2DCFD;" width="81.574" height="30"/>
		</g>
		<g>
			
				<rect x="358.803" y="333.027" transform="matrix(0.7071 -0.7071 0.7071 0.7071 -154.8479 373.793)" style="fill:#B2DCFD;" width="30" height="81.59"/>
		</g>
		<g>
			
				<rect x="124.356" y="98.396" transform="matrix(0.6999 -0.7143 0.7143 0.6999 -57.2991 141.1886)" style="fill:#CBE8F8;" width="30" height="80.761"/>
		</g>
		<path style="fill:#0082FF;" d="M354.995,157.005C328.552,130.563,293.396,116,256,116s-72.552,14.563-98.995,41.005    C130.563,183.448,116,218.604,116,256s14.563,72.552,41.005,98.995C183.448,381.438,218.604,396,256,396    s72.552-14.563,98.995-41.005C381.438,328.552,396,293.396,396,256S381.438,183.448,354.995,157.005z"/>
		<path style="fill:#00317E;" d="M354.995,157.005C328.552,130.563,293.396,116,256,116v280c37.396,0,72.552-14.563,98.995-41.005    C381.438,328.552,396,293.396,396,256S381.438,183.448,354.995,157.005z"/>
		<g>
			<path style="fill:#8CD95B;" d="M20.683,20.683c-27.577,27.578-27.577,72.45,0,100.027c13.359,13.359,31.121,20.717,50.014,20.717     s36.654-7.357,50.013-20.716c13.359-13.359,20.717-31.121,20.717-50.014s-7.357-36.655-20.717-50.014     C93.133-6.894,48.261-6.894,20.683,20.683z"/>
			<path style="fill:#FC1D5A;" d="M70.73,370.54c-18.893,0-36.655,7.357-50.014,20.717C7.357,404.615,0,422.377,0,441.27     c0,18.893,7.357,36.654,20.716,50.013C34.075,504.643,51.837,512,70.73,512s36.654-7.357,50.013-20.716     c13.359-13.359,20.717-31.121,20.717-50.014c0-18.893-7.357-36.655-20.716-50.014C107.384,377.897,89.623,370.54,70.73,370.54z"/>
			<path style="fill:#FFDA2D;" d="M441.27,141.46c18.893,0,36.654-7.357,50.013-20.716C504.643,107.384,512,89.623,512,70.73     s-7.357-36.655-20.717-50.014C477.924,7.357,460.163,0,441.27,0c-18.893,0-36.655,7.357-50.014,20.716     C377.897,34.075,370.54,51.837,370.54,70.73s7.357,36.654,20.716,50.013C404.615,134.103,422.377,141.46,441.27,141.46z"/>
			<path style="fill:#FE5957;" d="M441.27,370.54c-18.893,0-36.655,7.357-50.014,20.716c-13.359,13.359-20.717,31.121-20.717,50.014     c0,18.893,7.357,36.654,20.716,50.013C404.615,504.643,422.377,512,441.27,512c18.893,0,36.654-7.357,50.013-20.716     C504.643,477.924,512,460.163,512,441.27c0-18.893-7.357-36.655-20.716-50.014C477.924,377.897,460.163,370.54,441.27,370.54z"/>
			<path style="fill:#FDBF00;" d="M441.27,141.46c18.893,0,36.654-7.357,50.013-20.716C504.643,107.384,512,89.623,512,70.73     s-7.357-36.655-20.717-50.014C477.924,7.357,460.163,0,441.27,0V141.46z"/>
			<path style="fill:#FC1D5A;" d="M441.27,370.54V512c18.893,0,36.654-7.357,50.013-20.716C504.643,477.924,512,460.163,512,441.27     c0-18.893-7.357-36.655-20.716-50.014C477.924,377.897,460.163,370.54,441.27,370.54z"/>
		</g>
	</g>
	<g>
		<path style="fill:#22B8F9;" d="M270.212,270.786h-28.424c-44.47,0-80.664,36.117-80.792,80.558    c-0.022,0.764-0.101,3.504-0.196,7.294C186.766,382.766,220.363,396,256,396c35.547,0,69.065-13.167,95.004-37.18v-7.242    C351.004,307.029,314.761,270.786,270.212,270.786z"/>
	</g>
	<g>
		<path style="fill:#0082FF;" d="M270.212,270.786H256V396c35.547,0,69.065-13.167,95.004-37.18v-7.242    C351.004,307.029,314.761,270.786,270.212,270.786z"/>
	</g>
	<g id="XMLID_24_">
		<circle id="XMLID_26_" style="fill:#FFDFCF;" cx="256" cy="241.486" r="57.466"/>
		<path id="XMLID_25_" style="fill:#FFCEBF;" d="M256,184.02c31.738,0,57.466,25.728,57.466,57.466    c0,31.738-25.728,57.466-57.466,57.466V184.02z"/>
	</g>
	<g>
		<path style="fill:#61C27C;" d="M141.427,70.697c0-18.893-7.357-36.655-20.717-50.014C106.93,6.903,88.831,0.009,70.73,0.001    v141.425c18.88-0.009,36.629-7.364,49.98-20.716C134.07,107.351,141.427,89.589,141.427,70.697z"/>
		<path style="fill:#DD0057;" d="M120.744,391.256c-13.359-13.359-31.121-20.717-50.014-20.717V512    c18.893,0,36.654-7.357,50.013-20.716c13.359-13.359,20.717-31.121,20.717-50.014C141.46,422.377,134.103,404.615,120.744,391.256    z"/>
	</g>
</g>















</svg>
